<svg width="124" height="20" viewBox="0 0 124 20" fill="none" xmlns="http://www.w3.org/2000/svg">
<g clip-path="url(#clip0_28_163)">
<path d="M53.5575 16.1118C55.8319 19.7025 63.7622 21.566 65.7886 16.7263C67.3539 12.9206 63.2431 8.03141 59.3747 10.7763C57.93 11.8173 57.2894 13.93 58.5643 15.3262C60.1694 17.0479 60.8949 13.7166 61.6879 13.2425C61.7812 13.195 61.8277 13.1478 61.8743 13.1006C62.2948 12.957 62.7157 12.8603 63.0891 12.6702C63.0891 12.6702 63.136 12.6699 63.1356 12.6231C63.5117 12.8077 63.9347 12.9921 64.3104 13.1299C65.0232 14.5301 64.757 16.5932 63.4518 17.4927C61.168 19.1019 57.4114 17.8642 55.5255 16.1913C51.6122 12.7061 56.2614 7.80065 59.8138 6.69761C62.6648 5.78699 65.8515 5.95141 68.7571 6.11786C72.7408 6.37022 76.7258 6.80996 80.6657 7.48425C87.6076 8.69905 94.0009 11.7916 100.76 13.7104C105.783 15.1264 112.255 16.0636 117.204 13.873C120.987 12.2061 123.678 8.57964 122.851 4.32266C122.074 0.486926 117.806 -0.0913147 114.722 0.91467C111.965 1.82461 110.248 4.13241 111.205 6.98309C112.163 9.88061 115.344 9.29554 116.782 7.27082C116.875 7.12961 116.827 6.94258 116.685 6.84991C116.959 5.81733 116.298 5.07257 115.171 4.65908C114.607 4.47576 113.997 4.38646 113.434 4.20314C113.387 4.20348 113.34 4.15697 113.293 4.15731C113.385 3.96926 113.618 3.68652 113.617 3.54599C113.663 3.45196 113.615 3.35861 113.615 3.26493C113.939 2.84098 114.311 2.46353 114.73 2.08575C117.205 0.990465 120.44 1.34192 121.584 4.09756C122.633 6.61966 121.155 9.53474 119.34 11.2343C116.781 13.6887 112.802 13.9516 109.428 13.8353C102.447 13.7451 95.7738 10.7951 89.1989 8.5002C82.5771 6.20564 75.7313 5.31807 68.748 4.85309C64.0609 4.5121 57.7361 4.41715 54.4393 8.46962C52.6751 10.6841 51.9466 13.5938 53.5575 16.1118Z" fill="#C2902F"/>
</g>
<g clip-path="url(#clip1_28_163)">
<path d="M70.1418 15.8647C67.8933 19.4717 59.9766 21.3923 57.9154 16.5673C56.3227 12.7729 60.3982 7.85428 64.2863 10.5713C65.7384 11.6018 66.3943 13.7098 65.1295 15.1152C63.5368 16.8484 62.7872 13.5224 61.9909 13.054C61.8972 13.0072 61.8504 12.9603 61.8035 12.9135C61.3819 12.7729 60.9603 12.6793 60.5856 12.4919C60.5856 12.4919 60.5387 12.4919 60.5387 12.445C60.164 12.6324 59.7424 12.8198 59.3676 12.9603C58.6649 14.3656 58.946 16.4268 60.2577 17.3168C62.553 18.9095 66.3006 17.6448 68.1743 15.9584C72.0624 12.445 67.378 7.57322 63.8178 6.4958C60.9603 5.60576 57.7749 5.79313 54.8706 5.98051C50.8888 6.26158 46.907 6.73002 42.9721 7.43268C36.0391 8.69748 29.6683 11.8361 22.9227 13.8035C17.9104 15.2557 11.4459 16.2394 6.48035 14.0846C2.68596 12.445 -0.0310095 8.83801 0.765345 4.57518C1.51485 0.733942 5.77769 0.124966 8.86942 1.1087C11.6332 1.99874 13.3665 4.29411 12.4296 7.15162C11.4927 10.056 8.30728 9.49383 6.85511 7.47953C6.76142 7.33899 6.80826 7.15161 6.9488 7.05793C6.66773 6.02735 7.32355 5.27784 8.44782 4.85624C9.00995 4.66886 9.61892 4.57518 10.1811 4.3878C10.2279 4.3878 10.2747 4.34096 10.3216 4.34096C10.2279 4.15358 9.99368 3.87251 9.99368 3.73198C9.94683 3.63829 9.99368 3.5446 9.99368 3.45091C9.66577 3.02931 9.29101 2.65456 8.86942 2.2798C6.38667 1.20239 3.15441 1.57714 2.03014 4.34096C0.999566 6.87055 2.49858 9.7749 4.32551 11.4613C6.90195 13.8972 10.8837 14.1314 14.2565 13.9909C21.2363 13.8504 27.8882 10.8523 34.4464 8.5101C41.0515 6.16789 47.8907 5.231 54.8706 4.71571C59.555 4.34096 65.879 4.20043 69.2049 8.22904C70.985 10.4307 71.7345 13.3351 70.1418 15.8647Z" fill="#C2902F"/>
</g>
<defs>
<clipPath id="clip0_28_163">
<rect width="70.407" height="18.7846" fill="white" transform="translate(123.099 19.2178) rotate(179.587)"/>
</clipPath>
<clipPath id="clip1_28_163">
<rect width="70.407" height="18.7846" fill="white" transform="matrix(1 8.74228e-08 8.74228e-08 -1 0.624817 19.4717)"/>
</clipPath>
</defs>
</svg>
