<svg width="123" height="20" viewBox="0 0 123 20" fill="none" xmlns="http://www.w3.org/2000/svg">
<g clip-path="url(#clip0_28_181)">
<path d="M52.9326 15.6783C55.2071 19.269 63.1374 21.1326 65.1638 16.2929C66.7291 12.4871 62.6183 7.59794 58.7499 10.3429C57.3052 11.3839 56.6646 13.4965 57.9394 14.8927C59.5446 16.6144 60.2701 13.2832 61.0631 12.809C61.1564 12.7615 61.2029 12.7143 61.2494 12.6671C61.67 12.5236 62.0909 12.4268 62.4643 12.2368C62.4643 12.2368 62.5112 12.2364 62.5108 12.1896C62.8869 12.3743 63.3099 12.5586 63.6856 12.6964C64.3984 14.0966 64.1322 16.1598 62.827 17.0592C60.5432 18.6684 56.7866 17.4307 54.9007 15.7578C50.9874 12.2726 55.6366 7.36718 59.1889 6.26413C62.04 5.35352 65.2266 5.51794 68.1323 5.68438C72.116 5.93675 76.101 6.37648 80.0409 7.05077C86.9828 8.26558 93.3761 11.3582 100.136 13.277C105.158 14.693 111.63 15.6301 116.58 13.4395C120.362 11.7727 123.053 8.14617 122.226 3.88919C121.449 0.0534546 117.182 -0.524786 114.097 0.481199C111.34 1.39114 109.623 3.69894 110.581 6.54962C111.538 9.44714 114.72 8.86207 116.157 6.83735C116.25 6.69614 116.202 6.50911 116.061 6.41643C116.334 5.38386 115.673 4.63909 114.546 4.22561C113.982 4.04229 113.373 3.95299 112.809 3.76967C112.762 3.77001 112.715 3.7235 112.668 3.72384C112.761 3.53579 112.993 3.25305 112.992 3.11252C113.038 3.01849 112.99 2.92514 112.99 2.83146C113.315 2.40751 113.687 2.03006 114.106 1.65228C116.58 0.556993 119.815 0.908447 120.959 3.66409C122.008 6.18619 120.53 9.10126 118.715 10.8008C116.157 13.2552 112.177 13.5181 108.803 13.4019C101.822 13.3116 95.149 10.3616 88.5741 8.06673C81.9523 5.77217 75.1065 4.88459 68.1231 4.41962C63.4361 4.07863 57.1113 3.98368 53.8145 8.03615C52.0503 10.2506 51.3217 13.1603 52.9326 15.6783Z" fill="#181312"/>
</g>
<g clip-path="url(#clip1_28_181)">
<path d="M69.517 15.4312C67.2685 19.0382 59.3518 20.9588 57.2906 16.1339C55.6979 12.3395 59.7734 7.42081 63.6614 10.1378C65.1136 11.1684 65.7694 13.2764 64.5046 14.6817C62.9119 16.4149 62.1624 13.089 61.3661 12.6205C61.2724 12.5737 61.2255 12.5268 61.1787 12.48C60.7571 12.3395 60.3355 12.2458 59.9607 12.0584C59.9607 12.0584 59.9139 12.0584 59.9139 12.0116C59.5391 12.1989 59.1175 12.3863 58.7428 12.5268C58.0401 13.9322 58.3212 15.9933 59.6328 16.8834C61.9282 18.4761 65.6758 17.2113 67.5495 15.5249C71.4376 12.0116 66.7532 7.13975 63.193 6.06233C60.3355 5.17228 57.1501 5.35966 54.2457 5.54704C50.264 5.82811 46.2822 6.29655 42.3473 6.99921C35.4143 8.26401 29.0435 11.4026 22.2979 13.37C17.2856 14.8222 10.821 15.8059 5.85554 13.6511C2.06114 12.0116 -0.655826 8.40454 0.140528 4.1417C0.890038 0.30047 5.15287 -0.308506 8.2446 0.675225C11.0084 1.56527 12.7417 3.86064 11.8048 6.71814C10.8679 9.62249 7.68247 9.06036 6.23029 7.04605C6.1366 6.90552 6.18345 6.71814 6.32398 6.62446C6.04291 5.59388 6.69874 4.84437 7.823 4.42277C8.38513 4.23539 8.99411 4.14171 9.55624 3.95433C9.60308 3.95433 9.64993 3.90748 9.69677 3.90748C9.60308 3.72011 9.36886 3.43904 9.36886 3.29851C9.32202 3.20482 9.36886 3.11113 9.36886 3.01744C9.04095 2.59584 8.6662 2.22109 8.2446 1.84633C5.76185 0.768914 2.52959 1.14367 1.40532 3.90748C0.374749 6.43708 1.87377 9.34143 3.7007 11.0278C6.27713 13.4637 10.2589 13.6979 13.6317 13.5574C20.6115 13.4169 27.2634 10.4188 33.8216 8.07663C40.4267 5.73442 47.2659 4.79753 54.2457 4.28224C58.9302 3.90749 65.2542 3.76696 68.5801 7.79557C70.3602 9.99725 71.1097 12.9016 69.517 15.4312Z" fill="#181312"/>
</g>
<defs>
<clipPath id="clip0_28_181">
<rect width="70.407" height="18.7846" fill="white" transform="translate(122.474 18.7842) rotate(179.587)"/>
</clipPath>
<clipPath id="clip1_28_181">
<rect width="70.407" height="18.7846" fill="white" transform="matrix(1 8.74228e-08 8.74228e-08 -1 0 19.0381)"/>
</clipPath>
</defs>
</svg>
