<svg width="52" height="52" viewBox="0 0 52 52" fill="none" xmlns="http://www.w3.org/2000/svg">
<path d="M38.4 17.9748C34.2 11.4998 25.625 9.57479 18.975 13.5998C12.5 17.6248 10.4 26.3748 14.6 32.8498L14.95 33.3748L13.55 38.6248L18.8 37.2248L19.325 37.5748C21.6 38.7998 24.05 39.4998 26.5 39.4998C29.125 39.4998 31.75 38.7998 34.025 37.3998C40.5 33.1998 42.425 24.6248 38.4 17.9748ZM34.725 31.4498C34.025 32.4998 33.15 33.1998 31.925 33.3748C31.225 33.3748 30.35 33.7248 26.85 32.3248C23.875 30.9248 21.425 28.6498 19.675 26.0248C18.625 24.7998 18.1 23.2248 17.925 21.6498C17.925 20.2498 18.45 19.0248 19.325 18.1498C19.675 17.7998 20.025 17.6248 20.375 17.6248H21.25C21.6 17.6248 21.95 17.6248 22.125 18.3248C22.475 19.1998 23.35 21.2998 23.35 21.4748C23.525 21.6498 23.525 21.9998 23.35 22.1748C23.525 22.5248 23.35 22.8748 23.175 23.0498C23 23.2248 22.825 23.5748 22.65 23.7498C22.3 23.9248 22.125 24.2748 22.3 24.6248C23 25.6748 23.875 26.7248 24.75 27.5998C25.8 28.4748 26.85 29.1748 28.075 29.6998C28.425 29.8748 28.775 29.8748 28.95 29.5248C29.125 29.1748 30 28.2998 30.35 27.9498C30.7 27.5998 30.875 27.5998 31.225 27.7748L34.025 29.1748C34.375 29.3498 34.725 29.5248 34.9 29.6998C35.075 30.2248 35.075 30.9248 34.725 31.4498Z" fill="black"/>
<circle cx="26" cy="26" r="24.5" stroke="#181312" stroke-width="3"/>
</svg>
