<svg width="52" height="52" viewBox="0 0 52 52" fill="none" xmlns="http://www.w3.org/2000/svg">
<path d="M11.0714 20.7392L25.5304 28.2591C25.6755 28.3345 25.8365 28.3739 26 28.3739C26.1635 28.3739 26.3245 28.3345 26.4696 28.2591L40.9286 20.7405V33.803C40.9286 34.9296 40.4976 36.0136 39.7239 36.8325C38.9501 37.6514 37.8924 38.1432 36.7676 38.2069L36.5179 38.2137H15.4821C14.3555 38.2138 13.2716 37.7828 12.4527 37.009C11.6338 36.2353 11.142 35.1775 11.0782 34.0527L11.0714 33.803V20.7392ZM15.4821 13.7852H36.5179C37.6445 13.7851 38.7284 14.2161 39.5473 14.9899C40.3662 15.7636 40.858 16.8213 40.9218 17.9462L40.9286 18.1959V18.4456L26 26.2084L11.0714 18.4456V18.1959C11.0714 17.0693 11.5024 15.9853 12.2761 15.1664C13.0499 14.3475 14.1076 13.8557 15.2324 13.7919L15.4821 13.7852H36.5179H15.4821Z" fill="black"/>
<circle cx="26" cy="26" r="24.5" stroke="#181312" stroke-width="3"/>
</svg>
