<svg width="52" height="52" viewBox="0 0 52 52" fill="none" xmlns="http://www.w3.org/2000/svg">
<path d="M29.9653 31.1513L32.2753 28.8413C32.5864 28.534 32.9801 28.3237 33.4084 28.2358C33.8368 28.1479 34.2815 28.1863 34.6884 28.3463L37.5037 29.4704C37.915 29.6373 38.2677 29.9222 38.5173 30.2893C38.7668 30.6563 38.9022 31.089 38.9062 31.5329V36.6891C38.9039 36.991 38.8404 37.2894 38.7197 37.5661C38.5989 37.8429 38.4235 38.0923 38.2038 38.2995C37.9841 38.5066 37.7248 38.6672 37.4414 38.7715C37.1581 38.8757 36.8565 38.9216 36.555 38.9063C16.8272 37.6791 12.8466 20.9729 12.0938 14.5791C12.0588 14.2651 12.0907 13.9473 12.1874 13.6466C12.2841 13.3458 12.4434 13.0689 12.6548 12.8342C12.8662 12.5994 13.1249 12.412 13.4139 12.2844C13.7029 12.1568 14.0157 12.0919 14.3316 12.0938H19.3125C19.757 12.0951 20.1909 12.2294 20.5585 12.4793C20.926 12.7292 21.2104 13.0834 21.375 13.4963L22.4991 16.3116C22.6643 16.717 22.7065 17.162 22.6203 17.5912C22.5341 18.0204 22.3233 18.4146 22.0144 18.7247L19.7044 21.0347C19.7044 21.0347 21.0347 30.0375 29.9653 31.1513Z" fill="black"/>
<circle cx="26" cy="26" r="24.5" stroke="#181312" stroke-width="3"/>
</svg>
