<svg width="50" height="49" viewBox="0 0 50 49" fill="none" xmlns="http://www.w3.org/2000/svg">
<path d="M25 0C11.1942 0 0 10.9703 0 24.5C0 38.0297 11.1942 49 25 49C38.8058 49 50 38.0297 50 24.5C50 10.9703 38.8058 0 25 0ZM37.0145 18.468C37.0312 18.725 37.0312 18.993 37.0312 19.2555C37.0312 27.2836 30.7924 36.5312 19.3917 36.5312C15.8761 36.5312 12.6172 35.5305 9.87165 33.8078C10.3739 33.8625 10.8538 33.8844 11.3672 33.8844C14.269 33.8844 16.9364 32.9219 19.0625 31.2922C16.3393 31.2375 14.0513 29.4875 13.2701 27.0813C14.2243 27.218 15.0837 27.218 16.0658 26.9719C14.6637 26.6927 13.4033 25.9464 12.499 24.8598C11.5946 23.7731 11.102 22.4132 11.1049 21.0109V20.9344C11.9252 21.3883 12.8906 21.6672 13.9007 21.7055C13.0516 21.1509 12.3552 20.3996 11.8734 19.5181C11.3915 18.6367 11.1391 17.6523 11.1384 16.6523C11.1384 15.5203 11.4397 14.4867 11.981 13.5898C13.5374 15.4675 15.4795 17.0031 17.6812 18.097C19.8828 19.1909 22.2947 19.8185 24.76 19.9391C23.8839 15.8102 27.0312 12.4688 30.8147 12.4688C32.6004 12.4688 34.2076 13.2016 35.3404 14.3828C36.7411 14.1258 38.0804 13.6117 39.2746 12.9227C38.8114 14.3281 37.8404 15.5148 36.5513 16.2641C37.8013 16.1328 39.0067 15.7938 40.1228 15.318C39.2801 16.532 38.2254 17.6094 37.0145 18.468Z" fill="#C2902F"/>
</svg>
