<svg width="160" height="94" viewBox="0 0 160 94" fill="none" xmlns="http://www.w3.org/2000/svg">
<g clip-path="url(#clip0_130_4356)">
<path d="M37.8379 50.6482L47.7057 26.8737H62.3285V27.7687H61.1873H60.7957L60.4153 27.8135L60.0797 27.847L59.7552 27.903L59.4531 27.9925L59.1511 28.082L58.8826 28.205L58.6476 28.3281L58.4798 28.4288L58.3232 28.5407L58.1777 28.6861L58.0658 28.8204L57.9204 28.9994L57.8197 29.1784L57.6966 29.3574L57.5959 29.5812L57.5176 29.7825L57.4617 30.0175L57.4169 30.3308L57.3722 30.7335L57.3386 31.1699L57.3162 31.6845L57.2938 32.2663V33.0271V56.7793V57.4505L57.2491 58.0323L57.2715 58.5805L57.305 59.0504L57.3498 59.4532L57.3945 59.7776L57.4505 60.0574L57.5288 60.2587L57.6183 60.4266L57.719 60.6056L57.8421 60.7734L57.9763 60.9076L58.1441 61.0755L58.3008 61.2097L58.5022 61.3552L58.7259 61.5006L58.9497 61.6237L59.2182 61.7244L59.4755 61.8027L59.7776 61.881L60.0909 61.9481L60.4153 61.9593L60.7733 62.0041H61.1425H62.3285V62.8991H43.5326V62.0041H44.6849H45.0765L45.4345 61.9593L45.7814 61.9258L46.1058 61.8586L46.4303 61.7803L46.71 61.702L46.9785 61.5789L47.2246 61.4559L47.3813 61.3552L47.5491 61.2321L47.6833 61.0978L47.8288 60.93L47.9519 60.7734L48.0749 60.5832L48.1868 60.3818L48.2987 60.158L48.3546 59.9567L48.4106 59.7217L48.4553 59.3973L48.5001 58.9945L48.5336 58.547L48.556 58.0211L48.5672 57.4282V56.7793V30.107L34.7164 62.8991H34.0675L20.0377 30.3531V55.7052V56.3429V56.9247L20.0489 57.4282L20.1496 57.8533V58.2001L20.172 58.5246L20.2167 58.7707L20.2279 58.9497L20.3286 59.2742L20.4517 59.5763L20.6083 59.8783L20.7873 60.1692L20.9887 60.4266L21.2013 60.6727L21.4474 60.9188L21.7159 61.1426L21.8614 61.2433L22.018 61.344L22.197 61.4223L22.376 61.5006L22.7564 61.6461L23.1927 61.7691L23.6514 61.8474L24.1661 61.9034L24.7031 61.9481L25.2961 61.9705V62.8991H12.9893V62.0041H13.3585H13.6605L13.9402 61.9817L14.2199 61.9705L14.5108 61.9258L14.7905 61.8698L15.059 61.8139L15.3164 61.7356L15.5849 61.6349L15.8422 61.5342L16.0883 61.4223L16.3121 61.2992L16.5135 61.165L16.6925 61.0307L16.8715 60.8741L17.0169 60.7174L17.1512 60.5608L17.2966 60.393L17.4197 60.1916L17.5204 59.979L17.6435 59.7665L17.7218 59.5091L17.8225 59.263L17.9008 58.9721L17.9903 58.6812L18.0015 58.4015L18.0239 57.8757V56.9023V55.8059V33.0271V32.3558L17.9791 31.7628L17.9567 31.2258L17.9456 30.7559L17.9008 30.3531L17.8337 30.0287L17.7777 29.749L17.7218 29.5364L17.6323 29.3798L17.5316 29.2231L17.4085 29.0553L17.2743 28.8987L17.1065 28.7532L16.9274 28.6078L16.7484 28.4735L16.5247 28.3281L16.2785 28.205L16.0324 28.1043L15.7527 28.0036L15.473 27.9477L15.1485 27.8806L14.8241 27.8358L14.4549 27.7687H14.0857H12.9893V26.8737H27.668L37.8379 50.6482Z" fill="black"/>
<path fill-rule="evenodd" clip-rule="evenodd" d="M94.315 41.3398H105.414V42.3691L104.944 42.4474L104.519 42.5257L104.116 42.6488L103.735 42.7718L103.389 42.9285L103.064 43.0851L102.762 43.2641L102.482 43.4655L102.203 43.7116L101.901 44.0361L101.598 44.4165L101.252 44.864L100.882 45.3898L100.513 45.9716L100.11 46.6429L99.6853 47.3701L99.2378 48.1645L98.7567 48.97L98.2085 49.7755L97.6379 50.6258L97.0113 51.4985L96.3401 52.3935L95.6352 53.2998L94.8856 54.2284L95.5569 54.8102L96.1834 55.3584L96.7876 55.8395L97.3582 56.287L97.9064 56.6898L98.4099 57.059L98.8797 57.361L99.3273 57.6295L99.6293 57.7862L99.9314 57.9092L100.211 58.0323L100.513 58.133L100.793 58.1889L101.073 58.2449L101.375 58.2673L101.654 58.2896L101.901 58.2673L102.147 58.2449L102.393 58.1889L102.639 58.133L102.863 58.0323L103.109 57.9316L103.333 57.7862L103.556 57.6407L103.78 57.4617L104.004 57.2827L104.228 57.059L104.429 56.8352L104.653 56.5667L104.854 56.2982L105.056 55.9961L105.257 55.694L106.286 56.2758L106.007 56.8016L105.738 57.3051L105.458 57.7862L105.179 58.2561L104.899 58.7036L104.619 59.1287L104.34 59.5539L104.037 59.9343L103.758 60.3035L103.456 60.6503L103.176 60.9971L102.874 61.2992L102.572 61.5789L102.27 61.8586L101.968 62.1048L101.666 62.3509L101.419 62.5075L101.173 62.6642L100.927 62.8096L100.681 62.9327L100.413 63.0557L100.144 63.1788L99.8755 63.2795L99.607 63.3578L99.3385 63.4361L99.0588 63.5145L98.7791 63.5704L98.4994 63.6151L98.2197 63.6599L97.94 63.6823L97.6379 63.7046H97.3358L96.8323 63.6823L96.3289 63.6375L95.8254 63.5816L95.322 63.4809L94.8409 63.3578L94.3598 63.2124L93.8787 63.0334L93.4088 62.8096L92.9277 62.5635L92.4243 62.2614L91.8984 61.9146L91.3278 61.5342L90.7572 61.0866L90.1531 60.6056L89.5042 60.0573L88.8553 59.4756L88.0274 60.0238L87.2218 60.5272L86.4163 60.9748L85.6443 61.3999L84.85 61.7803L84.1004 62.1271L83.3508 62.4516L82.6012 62.7201L81.8739 62.9662L81.1243 63.1676L80.3748 63.3242L79.6252 63.4697L78.8532 63.5704L78.0812 63.6487L77.3092 63.6935L76.5149 63.7158L75.8883 63.6935L75.2842 63.6711L74.6912 63.6151L74.1206 63.5592L73.5501 63.4585L73.0018 63.3354L72.476 63.19L71.9725 63.0334L71.4915 62.8544L71.0104 62.653L70.5405 62.4292L70.093 62.1831L69.6678 61.9146L69.2427 61.6349L68.8623 61.3104L68.4819 60.986L68.1127 60.6391L67.7882 60.2699L67.4638 59.9231L67.1841 59.5427L66.9044 59.1735L66.6582 58.7931L66.4568 58.4127L66.2555 58.0099L66.0764 57.6072L65.931 57.182L65.7856 56.7793L65.6849 56.3317L65.6066 55.9066L65.5506 55.4591L65.5282 55.0115L65.5059 54.5416L65.5282 54.0606L65.5506 53.5795L65.6066 53.0984L65.6849 52.6285L65.7856 52.1586L65.9086 51.6887L66.0541 51.2412L66.2107 50.816L66.4121 50.3685L66.6135 49.9657L66.8596 49.5406L67.1057 49.1378L67.3854 48.7351L67.6875 48.3547L68.012 47.9743L68.3588 47.6051L68.728 47.2359L69.1084 46.8667L69.5112 46.5198L69.9363 46.173L70.3838 45.8262L70.8649 45.4793L71.346 45.1549L71.8495 44.8304L72.3753 44.5284L72.9235 44.2039L73.4941 43.9018L74.0871 43.6221L74.6912 43.3201L75.3178 43.0404L75.9667 42.7607L76.6379 42.4921L76.4813 42.067L76.3247 41.6419L76.1792 41.2167L75.9667 40.8363L75.8436 40.4112L75.7205 39.986L75.6198 39.5833L75.5191 39.1581L75.4408 38.7553L75.3849 38.3526L75.3289 37.9498L75.273 37.547L75.2283 37.1666L75.2059 36.7639L75.1835 36.3611V35.9807L75.2059 35.4549L75.2283 34.9514L75.2842 34.4479L75.3625 33.9445L75.4856 33.4746L75.6086 32.9935L75.7653 32.546L75.9219 32.0761L76.1233 31.6509L76.3471 31.2258L76.5932 30.8007L76.8729 30.3979L77.1526 30.0175L77.477 29.6371L77.8015 29.2679L78.1707 28.8987L78.5511 28.5519L78.9315 28.2274L79.3343 27.9477L79.7594 27.668L80.2069 27.3995L80.6545 27.1757L81.102 26.952L81.5719 26.773L82.053 26.6163L82.5564 26.4709L83.0599 26.3478L83.5857 26.2471L84.1115 26.1688L84.6821 26.1129L85.2304 26.0905L85.8233 26.0681H86.2932L86.7407 26.0905L87.1883 26.1352L87.6134 26.1912L88.0162 26.2471L88.4189 26.3254L88.7993 26.4261L89.1797 26.5268L89.5489 26.6499L89.8958 26.7953L90.2426 26.952L90.567 27.1086L90.8915 27.2876L91.1936 27.489L91.4733 27.7128L91.753 27.9365L92.0215 28.1827L92.2676 28.4064L92.5138 28.6526L92.7151 28.9211L92.9165 29.1672L93.0955 29.4357L93.2522 29.7042L93.3976 29.9839L93.5207 30.2524L93.6438 30.5321L93.7221 30.8118L93.8004 31.0915L93.8563 31.3936L93.9011 31.6957L93.9458 31.9978V32.2998V32.6691L93.9011 33.0383L93.8563 33.4075L93.8004 33.7767L93.7221 34.1235L93.6438 34.4479L93.5207 34.7948L93.3976 35.1192L93.241 35.4437L93.0844 35.7458L92.9053 36.0478L92.704 36.3499L92.5026 36.6296L92.2564 36.9093L91.9879 37.189L91.7194 37.4575L91.4397 37.726L91.1153 37.9946L90.7908 38.2631L90.444 38.5316L90.0636 38.7777L89.6832 39.0462L89.2804 39.2924L88.8329 39.5385L88.3854 39.7846L87.9155 40.0308L87.412 40.2769L86.9086 40.5007L86.3603 40.7468L85.8121 40.9706L85.2192 41.1943L84.6262 41.4181L85.0066 42.0894L85.4094 42.7607L85.8569 43.4543L86.3044 44.148L86.7743 44.8416L87.2778 45.5353L87.7812 46.2401L88.3294 46.945L88.9 47.6722L89.493 48.3994L90.086 49.1266L90.7125 49.8539L91.3614 50.6035L92.055 51.3531L92.7487 52.1027L93.4536 52.8746L93.9235 52.3264L94.371 51.8006L94.7737 51.2747L95.143 50.7489L95.5122 50.2454L95.8142 49.7644L96.0939 49.2833L96.3624 48.8022L96.5862 48.3323L96.7876 47.8624L96.9442 47.4149L97.0897 46.9897L97.1904 46.5646L97.2687 46.1394L97.3134 45.7367L97.3358 45.3339L97.3134 45.0542L97.291 44.7857L97.2351 44.5396L97.1344 44.2934L97.0337 44.0473L96.8883 43.8235L96.7428 43.6221L96.5638 43.4207L96.3624 43.2417L96.1387 43.0851L95.8925 42.9285L95.624 42.8054L95.322 42.7047L95.0199 42.604L94.6731 42.5481L94.3038 42.4921V41.3398H94.315ZM83.7088 39.7846L84.3801 39.5161L84.9842 39.2476L85.5548 38.9791L86.0359 38.6994L86.4834 38.4197L86.8638 38.14L87.0204 37.9946L87.1771 37.8491L87.3225 37.6925L87.4456 37.547L87.6693 37.245L87.8707 36.9429L88.0274 36.6184L88.1728 36.2492L88.2735 35.88L88.3294 35.5108L88.3742 35.108L88.3966 34.7053V34.3361L88.3742 33.9669L88.3294 33.5977L88.2847 33.2508L88.2287 32.9264L88.1728 32.5795L88.0945 32.2551L88.0162 31.9306L87.8931 31.6286L87.7924 31.3265L87.647 31.0244L87.5239 30.7447L87.3673 30.465L87.2106 30.1965L87.0316 29.928L86.8526 29.6595L86.5841 29.335L86.282 29.0665L86.1366 28.9434L85.9911 28.8204L85.8345 28.7197L85.6779 28.6414L85.5212 28.563L85.3646 28.4847L85.208 28.4288L85.029 28.384L84.85 28.3393L84.671 28.3169L84.4919 28.2945H84.3129L84.0109 28.3169L83.7088 28.3617L83.4291 28.44L83.1606 28.5407L82.8809 28.6861L82.6347 28.8427L82.3886 29.0441L82.1648 29.2903L81.9411 29.5588L81.7621 29.8273L81.6166 30.1294L81.4936 30.4538L81.3929 30.8007L81.3369 31.1699L81.2922 31.5502L81.2698 31.953V32.2775L81.2922 32.6019L81.3369 32.9488L81.3817 33.2956L81.4376 33.6424L81.5159 34.0116L81.5942 34.3808L81.6949 34.75L81.818 35.1528L81.9746 35.6227L82.176 36.1485L82.4222 36.7527L82.6907 37.4016L83.0151 38.1288L83.3619 38.9232L83.7088 39.7846ZM77.3092 44.2375L76.8058 44.4612L76.3247 44.7074L75.8995 44.9311L75.5191 45.1773L75.1499 45.4234L74.8479 45.6695L74.5682 45.9157L74.322 46.1842L74.0423 46.5646L73.7738 46.945L73.5724 47.3254L73.3934 47.7281L73.248 48.1533L73.1697 48.6008L73.1137 49.026L73.0913 49.4958V49.7979L73.1137 50.1224L73.1361 50.4245L73.1808 50.7265L73.2368 51.051L73.2927 51.3531L73.3487 51.6775L73.4494 51.9796L73.5277 52.2817L73.6284 52.6061L73.7514 52.9082L73.8969 53.2103L74.0423 53.5123L74.1878 53.8368L74.3444 54.1389L74.5234 54.441L74.8926 55.0451L75.2954 55.6157L75.6982 56.1415L76.1233 56.645L76.5708 57.0925L77.0407 57.5177L77.5106 57.9204L78.0141 58.2673L78.5175 58.5917L79.0434 58.8602L79.5468 59.1064L80.0503 59.2854L80.3188 59.3637L80.5873 59.442L80.8335 59.4979L81.102 59.5427L81.3481 59.5874L81.6166 59.6098L81.8628 59.6322H82.1313H82.3998L82.6683 59.6098L82.948 59.5651L83.2165 59.5203L83.5186 59.4644L83.7983 59.3861L84.1004 59.2854L84.4024 59.1847L84.7269 59.0616L85.0513 58.9385L85.3982 58.7931L85.7226 58.6365L86.4275 58.2673L87.1547 57.8645L86.3603 57.0366L85.5884 56.231L84.8611 55.4031L84.1339 54.5528L83.4403 53.7249L82.769 52.897L82.1201 52.0467L81.4936 51.1964L80.8894 50.3461L80.3188 49.4735L79.7482 48.6232L79.2224 47.7505L78.7189 46.8778L78.2378 46.0052L77.7903 45.1325L77.3092 44.2375Z" fill="black"/>
<path d="M144.93 26.0569V38.5652H143.89L143.733 37.961L143.565 37.3792L143.386 36.8086L143.185 36.2604L142.961 35.7122L142.737 35.2088L142.491 34.7053L142.234 34.213L141.943 33.7767L141.641 33.3292L141.339 32.8816L141.014 32.4789L140.667 32.0873L140.309 31.7069L139.94 31.3601L139.56 31.0244L139.146 30.7L138.743 30.4091L138.318 30.1294L137.915 29.8833L137.468 29.6371L137.042 29.4245L136.595 29.2343L136.147 29.0553L135.711 28.9099L135.241 28.7756L134.771 28.6749L134.313 28.5743L133.82 28.5071L133.339 28.4512L132.847 28.4288L132.344 28.4064H131.918L131.516 28.4288L131.102 28.4736L130.676 28.5295L130.296 28.5854L129.893 28.6749L129.502 28.7756L129.099 28.8987L128.719 29.0106L128.349 29.156L127.969 29.3239L127.6 29.5029L127.242 29.6819L126.873 29.8833L126.503 30.107L126.168 30.3531L125.821 30.5993L125.474 30.8566L125.15 31.1251L124.848 31.4048L124.545 31.6845L124.255 31.9754L123.997 32.2775L123.729 32.6019L123.471 32.9264L123.248 33.2397L123.002 33.5865L122.8 33.9333L122.599 34.3025L122.397 34.6605L122.207 35.0409L122.051 35.4325L121.849 35.936L121.659 36.4394L121.48 36.9653L121.323 37.4911L121.155 38.0169L121.032 38.5652L120.898 39.1134L120.797 39.684L120.697 40.2434L120.607 40.814L120.529 41.3845L120.473 41.9663L120.428 42.5593L120.384 43.1634L120.372 43.7676V44.3718L120.384 45.5689L120.451 46.7436L120.484 47.3142L120.529 47.8736L120.607 48.4442L120.674 48.9924L120.753 49.563L120.853 50.0888L120.954 50.6259L121.055 51.1517L121.178 51.6775L121.323 52.1922L121.458 52.6956L121.603 53.1991L121.771 53.6914L121.927 54.1725L122.106 54.62L122.297 55.0675L122.498 55.4927L122.722 55.9178L122.946 56.3206L123.158 56.6786L123.404 57.0702L123.673 57.4058L123.93 57.7526L124.199 58.0771L124.501 58.3792L124.78 58.6701L125.094 58.9498L125.418 59.2071L125.731 59.4532L126.078 59.6993L126.447 59.9007L126.805 60.1021L127.197 60.2811L127.577 60.4489L127.991 60.6056L128.417 60.751L128.842 60.8741L129.278 60.9748L129.726 61.0531L130.195 61.1314L130.665 61.1762L131.146 61.2097L131.65 61.2545H132.165H132.59L132.992 61.2321L133.418 61.1985L133.82 61.1538L134.223 61.109L134.615 61.0531L135.017 60.9748L135.398 60.8741L135.789 60.7734L136.17 60.6727L136.561 60.5496L136.919 60.4042L137.311 60.2588L137.669 60.1021L138.016 59.9455L138.385 59.7553L138.721 59.5539L139.09 59.3525L139.459 59.1288L139.817 58.8826L140.186 58.6253L140.544 58.3456L140.914 58.0547L141.283 57.7303L141.663 57.4058L142.032 57.0702L142.413 56.701L142.793 56.3206L143.565 55.5038L144.337 54.6424V57.7303L143.957 58.1218L143.565 58.5022L143.185 58.8714L142.793 59.2071L142.413 59.5315L142.032 59.856L141.618 60.1581L141.238 60.4713L140.835 60.751L140.444 61.0084L140.041 61.2545L139.638 61.5006L139.235 61.7468L138.821 61.9481L138.419 62.1495L138.016 62.3285L137.613 62.5075L137.188 62.6754L136.763 62.8096L136.315 62.9551L135.868 63.0781L135.42 63.2012L134.962 63.3019L134.469 63.4026L133.988 63.4809L133.496 63.548L132.992 63.604L132.489 63.6599L131.974 63.7047L131.426 63.727L130.9 63.7494H130.352H129.647L128.942 63.7047L128.249 63.6599L127.555 63.604L126.895 63.5257L126.224 63.425L125.575 63.3019L124.926 63.1788L124.277 63.011L123.673 62.832L123.046 62.653L122.431 62.4516L121.849 62.2278L121.256 61.9817L120.697 61.7244L120.126 61.4335L119.578 61.1314L119.03 60.8293L118.526 60.5049L118.012 60.1581L117.531 59.8L117.061 59.4085L116.602 59.0281L116.154 58.6253L115.729 58.2002L115.327 57.7526L114.935 57.3051L114.555 56.824L114.208 56.3429L113.861 55.8507L113.514 55.3248L113.212 54.799L112.91 54.2508L112.653 53.7026L112.384 53.1655L112.16 52.595L111.937 52.0244L111.735 51.465L111.556 50.8944L111.388 50.3238L111.254 49.742L111.131 49.149L111.03 48.5673L110.941 47.9743L110.862 47.3925L110.829 46.7884L110.784 46.173V45.5689L110.807 44.92L110.829 44.2934L110.885 43.6445L110.941 43.018L111.042 42.3915L111.165 41.7873L111.31 41.1608L111.467 40.5566L111.634 39.9413L111.836 39.3371L112.06 38.733L112.306 38.14L112.563 37.5359L112.854 36.9541L113.156 36.3835L113.48 35.7905L113.827 35.2311L114.185 34.6605L114.555 34.1347L114.957 33.6089L115.338 33.1054L115.763 32.6131L116.21 32.132L116.658 31.6845L117.105 31.237L117.587 30.8119L118.079 30.4091L118.582 30.0063L119.108 29.6371L119.634 29.2791L120.182 28.9323L120.753 28.6078L121.323 28.3057L121.905 28.0037L122.498 27.7352L123.08 27.5002L123.673 27.2764L124.277 27.0527L124.87 26.8737L125.474 26.6835L126.101 26.5492L126.705 26.4262L127.342 26.3031L127.947 26.2248L128.573 26.1465L129.222 26.1017L129.849 26.0569H130.497H130.967L131.448 26.0793L131.941 26.1241L132.399 26.1576L132.914 26.2248L133.395 26.2807L133.887 26.3814L134.391 26.4597L134.894 26.5828L135.398 26.7059L135.912 26.8513L136.416 26.9967L136.942 27.1534L137.445 27.3324L137.971 27.5226L138.497 27.724L139.09 27.9477L139.616 28.1267L140.086 28.2834L140.511 28.4288L140.869 28.5295L141.182 28.6078L141.417 28.6526L141.607 28.6749H141.809L142.01 28.6302L142.211 28.5854L142.413 28.5071L142.569 28.4288L142.76 28.3281L142.916 28.1827L143.084 28.0484L143.241 27.8806L143.364 27.7016L143.487 27.4778L143.61 27.2317L143.688 26.9967L143.766 26.6835L143.834 26.3814L143.89 26.0569H144.93Z" fill="black"/>
<path fill-rule="evenodd" clip-rule="evenodd" d="M48.634 15.7643C48.634 13.7281 48.7459 14.019 49.641 12.3296C53.1316 14.6679 54.8546 18.3935 52.0688 18.3935C50.4801 18.3935 48.634 17.3082 48.634 15.7643ZM58.9494 12.7323C60.471 13.5379 66.0538 16.9726 63.9952 19.199C62.138 21.2129 58.9494 17.0733 58.9494 12.7323ZM40.3437 13.7393C40.3437 13.3141 40.601 12.4191 40.7465 12.117C41.8317 12.3743 41.7198 12.3631 42.4247 13.068C45.9265 16.637 40.3437 17.4201 40.3437 13.7393ZM36.2937 13.5379C35.2084 13.7952 35.2196 13.9406 34.0672 13.3365C34.1344 12.531 34.4812 11.6918 35.1525 11.8597C35.9021 12.0275 36.2713 12.6988 36.2937 13.5379ZM36.0923 7.47396H36.6964C36.7524 8.10049 36.6852 7.85435 36.8978 8.2795C35.9468 8.17881 36.4055 8.16762 36.0923 7.47396ZM42.3576 4.83359C43.9798 4.45319 44.1812 4.78883 44.1812 7.06C44.1812 7.83198 44.2483 7.13832 43.9798 7.66416C43.3421 7.49634 42.9953 7.10476 42.6373 6.57892C41.8429 5.44893 42.3576 5.63912 42.3576 4.83359ZM49.641 2.21559C49.641 0.0451101 54.0938 -0.312907 54.0938 3.22251C54.0938 4.83359 53.4337 6.2209 52.4715 6.86981C51.7219 6.36635 49.641 3.36795 49.641 2.21559ZM49.0368 2.21559C49.0368 3.89379 50.9164 6.14259 52.0688 7.47396C51.3975 8.7494 49.8424 10.394 49.641 11.1213C48.69 11.0429 45.479 8.88365 44.584 8.29069C44.6175 6.86981 45.7699 4.03924 42.5701 4.03924C41.8317 4.03924 40.3997 6.29922 43.3757 8.29069C42.7827 9.17454 41.429 9.85701 41.1493 10.9199C40.299 10.8975 40.0528 10.7073 39.4599 10.3717C39.1466 10.1927 39.113 10.1815 38.811 10.0136C38.2516 9.72276 38.5648 10.0025 38.039 9.56612C37.3677 8.99553 37.6138 8.93959 37.4125 7.96623C37.0432 6.09783 36.0363 6.73555 35.4769 6.86981C35.4769 8.78296 35.9468 8.03336 36.2825 9.29761C34.0337 12.6652 34.5707 8.57039 26.9181 11.2667C24.4232 12.1506 21.9506 12.9561 19.2319 13.2917C16.3678 13.6498 10.2703 13.9183 7.753 12.3296C6.76845 11.7142 6.22024 10.2598 7.41735 9.55494C7.97676 9.23048 7.85369 9.47662 8.77111 9.49899V8.69346H7.76418C6.444 8.69346 4.06095 11.8485 8.65923 13.4484C10.9975 14.2651 13.3023 14.1532 15.8531 14.1532C24.5127 14.1532 26.8957 10.4612 33.2729 11.1101C35.2308 11.3115 32.1765 12.6764 33.9218 14.0749C34.5371 14.5672 35.5552 14.7014 36.3496 14.2315C36.9537 13.8623 36.8866 13.5603 36.8866 12.7435C36.8866 12.2289 36.6293 12.2065 36.3384 11.882C35.8461 11.3338 36.014 11.58 35.6783 10.9311C36.1482 10.6178 36.5957 10.2598 37.0992 9.91295L40.3437 11.5352C37.5243 16.8495 44.3826 18.3263 44.3826 15.1825C44.3826 13.2694 42.6485 12.71 41.552 11.5352C41.7534 10.9646 42.1226 10.7744 42.6596 10.2262L43.9798 8.91722C44.7966 9.10741 48.2201 11.2108 49.0368 11.7478C48.9361 13.0456 48.0299 13.4819 48.0299 15.3951C48.0299 19.1319 53.8924 20.6982 53.8924 16.816C53.8924 14.1644 51.3192 13.3477 50.2451 11.759C50.4353 10.9534 51.2856 9.9577 51.8674 9.12979C52.2478 8.60395 52.2925 8.77177 52.4715 8.11168C53.3778 8.32425 54.9888 9.78988 55.8615 10.3717C57.3048 11.3338 58.2669 11.4345 58.3341 13.7616C58.4348 17.2971 61.3996 20.8437 62.9771 20.8437C64.1518 20.8437 64.8679 21.045 65.3713 19.792C66.3895 17.2747 63.8386 14.6119 61.2206 13.2917C60.6388 13.0008 60.2696 12.8442 59.7661 12.5198C57.0586 10.8192 60.4486 3.83785 63.0554 1.90232C66.7698 -0.86112 68.1236 1.72331 69.455 2.02539C68.448 0.134614 67.6985 0.201743 65.6175 0.201743C64.7336 0.201743 63.1561 1.16391 62.5408 1.57787C59.6543 3.5134 58.3341 7.40683 58.3341 11.3338L54.3959 8.59276C53.8365 8.15643 53.5568 7.82079 53.0757 7.49634C54.0267 5.70625 54.8882 5.07972 54.8882 3.24489C54.8882 0.570948 51.8226 -0.838744 49.8088 0.593324C49.3277 0.917776 49.0368 1.60025 49.0368 2.21559Z" fill="black"/>
<path fill-rule="evenodd" clip-rule="evenodd" d="M108.311 19.0085C104.451 19.0085 107.83 15.1262 108.96 13.9962C109.274 13.683 109.99 13.1683 110.336 12.9334C112.473 16.122 110.941 19.0085 108.311 19.0085ZM154.026 11.244V11.8257C153.903 12.6313 153.209 13.4704 151.497 14.0522C148.98 14.9136 146.709 14.757 144.113 14.757C135.308 14.757 130.094 9.91259 125.899 11.9264C126.559 13.1683 126.503 12.553 126.503 13.9515C126.503 15.4842 122.308 15.708 122.979 13.4816C123.303 12.4075 124.019 12.4858 124.277 11.5125L122.856 10.5056L120.473 11.7586C120.238 11.8929 120.036 12.0048 119.824 12.1166C120.003 12.8774 120.227 13.627 120.227 14.5444C120.227 18.6504 114.263 17.912 115.897 14.6787C116.154 14.164 117.698 12.497 118.403 12.318C118.291 10.9643 117.172 11.1545 116.177 9.27488C115.617 9.57695 115.326 9.8119 114.789 10.114L113.503 10.8524C112.921 11.2216 111.5 12.1502 110.918 12.318C111.187 13.448 111.925 14.6451 111.925 15.7527C111.925 20.2503 106.063 20.6531 106.063 17.7778C106.063 15.6856 107.427 14.5892 108.893 13.3249C109.285 12.9781 109.609 12.553 109.911 12.1054L108.669 10.3154C108.199 9.70002 107.841 9.15181 107.282 8.67072C106.835 8.9728 106.454 9.34201 105.928 9.73359L101.845 12.5306C101.845 14.7794 101.073 16.6366 100.234 18.0127C97.1233 23.1928 91.3727 21.4027 96.3066 15.3052C98.8351 12.195 100.815 13.6158 100.815 10.5167C100.815 7.56311 99.6742 5.41501 97.9065 3.32285C97.3359 2.66275 96.5863 2.12573 95.7696 1.82365C92.3125 0.525838 92.0999 2.49493 90.5 2.62919C93.6438 -2.06978 101.621 2.58444 101.621 11.7362C102.55 11.6579 103.836 10.5951 104.463 10.114C104.877 9.78953 105.268 9.48745 105.705 9.12943C106.197 8.73785 106.365 8.43578 106.89 8.08895C105.928 6.6345 105.279 5.47095 105.279 3.62492C105.279 2.71869 105.604 2.08097 106.04 1.55514C106.476 1.04049 107.271 0.592967 107.707 0.592967C109.945 0.592967 108.927 0.503462 109.632 0.883855L110.001 1.1188C110.034 1.15237 110.079 1.18593 110.113 1.20831C110.325 1.3985 110.739 1.83484 110.739 2.20404C110.739 6.64569 109.464 5.31432 107.909 8.26795C108.434 9.06231 109.866 11.2552 110.538 11.7139C111.187 11.546 114.23 9.49864 115.393 8.8833C115.293 7.63024 114.554 6.42193 115.651 5.29194C117.206 3.68086 119.992 5.54926 117.396 8.25677C117.105 8.55884 117.284 8.51409 116.814 8.68191C116.893 9.59933 117.452 9.82309 117.978 10.3489C119.611 11.9824 119.018 11.7362 120.887 10.7293C122.733 9.75596 122.363 9.92378 122.509 9.11825C122.576 8.79379 122.565 8.58122 122.654 8.25677C123.102 6.76876 124.031 7.35054 124.489 7.46242C124.489 10.2594 123.728 8.39102 123.684 10.293C124.568 10.6063 124.031 10.6846 124.713 11.0985C125.183 11.3782 125.373 11.2216 125.932 11.1545C130.016 10.6286 128.853 10.3266 134.279 12.2397C138.43 13.7053 146.407 14.8689 150.367 13.7165C154.708 12.4523 153.041 10.3266 152.448 10.0469C151.777 9.7224 152.101 10.0133 151.195 10.0916C151.352 8.24558 153.768 9.54339 154.026 11.244ZM96.9779 20.0154C94.4829 20.0154 94.8186 17.6211 97.5261 15.3052C98.3092 14.6339 99.5623 13.5935 100.625 13.3473C100.625 15.4954 100.524 17.554 98.6449 19.0532C98.354 19.2546 97.3135 20.0154 96.9779 20.0154ZM117.62 16.782C115.841 16.782 115.998 15.0367 117.799 13.5151C118.336 13.0564 118.504 12.8998 119.242 12.732C120.249 14.6339 119.309 16.782 117.62 16.782ZM125.507 14.3431C124.601 14.3431 123.661 14.4661 123.74 13.5823C123.784 13.0117 124.523 12.3851 125.306 12.3292C126.089 13.5151 125.821 13.1347 125.507 14.3431ZM123.281 9.08468C123.303 8.12251 123.08 8.29033 123.885 8.07776C123.807 9.07349 123.74 8.63716 123.281 9.08468ZM115.998 8.27914C115.069 4.30739 117.81 5.05699 117.81 6.05272C117.821 7.03727 116.769 8.07776 115.998 8.27914ZM107.495 7.47361C106.488 6.7352 105.872 4.94511 105.872 3.22215C105.872 2.72988 106.913 1.40969 107.495 1.40969C108.468 1.40969 109.285 1.24187 109.811 1.92434C111.019 3.52423 108.625 6.71282 107.495 7.47361Z" fill="black"/>
<path fill-rule="evenodd" clip-rule="evenodd" d="M71.29 9.28604C71.29 13.9179 76.7162 13.627 78.1707 11.3111C78.5063 10.7852 78.6853 10.3377 78.842 9.55455C78.9986 8.77139 79.0769 8.40218 78.5623 7.67496C78.2826 8.86089 78.2937 9.879 77.6784 10.83C76.1233 13.2466 72.0956 12.497 72.0956 9.28604C72.0956 6.6121 75.7317 7.1715 75.7317 8.88327C75.7317 9.65524 74.8702 9.5098 74.1094 9.68881C75.1275 11.1992 76.3358 9.58812 76.3358 8.88327C76.347 5.50448 71.29 6.26527 71.29 9.28604Z" fill="black"/>
<path fill-rule="evenodd" clip-rule="evenodd" d="M83.6298 8.68191C83.6298 9.61052 84.1445 10.0692 84.6368 10.4944C85.3976 10.3154 85.4647 10.4161 85.8563 9.89022C83.104 9.2525 84.9724 7.46242 86.0577 7.46242C89.7833 7.46242 87.3778 14.4102 83.2942 11.8481C82.746 11.5013 82.6341 11.3894 82.2873 10.83C81.5936 9.7224 81.6048 9.14062 81.6048 7.46242H81.202C81.1237 8.31271 80.5084 9.85665 82.0635 11.6579C83.7417 13.6158 88.6868 13.7613 88.6868 9.27488C88.6868 8.64835 88.2841 7.96588 87.9372 7.59667C86.6506 6.19817 83.6298 6.92539 83.6298 8.68191Z" fill="black"/>
<path fill-rule="evenodd" clip-rule="evenodd" d="M81.8181 5.64996C83.0376 5.31431 85.6556 2.62919 83.9102 0.716035C83.2166 -0.044751 82.9145 0.17901 81.6055 0.17901C81.4601 0.816727 80.4308 2.95364 82.411 2.00266C82.1202 1.20831 82.3775 1.98028 81.8069 1.19712L82.5789 0.559403C85.7674 2.32711 82.0978 4.5759 81.8181 5.64996Z" fill="black"/>
<path fill-rule="evenodd" clip-rule="evenodd" d="M75.541 2.01382C75.541 3.85984 76.8388 5.29191 78.1702 5.66112C77.0514 3.54658 76.1452 4.60944 76.1452 1.81244C76.1452 1.20828 76.9283 0.716008 77.566 0.827889C78.8191 1.04046 77.6332 1.64461 77.3647 2.02501C77.9576 2.15926 77.98 2.22639 78.7855 2.22639C78.7744 -1.5216 75.541 0.279675 75.541 2.01382Z" fill="black"/>
<path fill-rule="evenodd" clip-rule="evenodd" d="M81.8182 5.6499H81.6055L81.7734 5.88505L81.8182 5.6499Z" fill="black"/>
<path fill-rule="evenodd" clip-rule="evenodd" d="M158.68 91.5293C158.333 90.7349 157.539 90.5671 156.599 90.5895H3.14386C2.22644 90.5671 1.43209 90.7349 1.08526 91.5293C0.760809 92.3236 1.18595 93.1851 1.96912 93.5543C2.75228 93.9235 3.60257 93.4536 3.90465 92.6369C2.9201 93.2299 2.14812 93.1068 1.90199 92.2901C1.77892 91.5181 2.59565 91.1713 3.14386 91.2048H156.61C157.181 91.1713 157.975 91.5181 157.841 92.2901C157.617 93.1068 156.845 93.2299 155.86 92.6369C156.163 93.4536 157.024 93.9235 157.796 93.5543C158.579 93.1851 159.004 92.3236 158.68 91.5293Z" fill="black"/>
<path d="M10.6955 70.809V76.1233H10.2815C10.1361 75.094 9.88996 74.2885 9.53194 73.6843C9.17393 73.0802 8.68165 72.6103 8.02156 72.2523C7.38384 71.8831 6.72375 71.7153 6.0189 71.7153C5.23574 71.7153 4.58683 71.939 4.07219 72.4425C3.55754 72.9236 3.28902 73.4606 3.28902 74.0759C3.28902 74.5346 3.45684 74.9598 3.7813 75.3625C4.26238 75.9219 5.37 76.6604 7.12652 77.6113C8.55859 78.3721 9.52076 78.9763 10.0578 79.3902C10.5724 79.8042 10.9864 80.2741 11.2549 80.8335C11.5458 81.3929 11.6912 81.9747 11.6912 82.59C11.6912 83.7424 11.2325 84.7605 10.3487 85.5884C9.44244 86.4387 8.27888 86.8527 6.858 86.8527C6.42167 86.8527 5.98534 86.8303 5.59376 86.752C5.37 86.7072 4.88891 86.5841 4.1505 86.338C3.42328 86.0919 2.95338 85.9912 2.76319 85.9912C2.5618 85.9912 2.41636 86.0359 2.30448 86.159C2.20378 86.2597 2.11428 86.5058 2.05834 86.8638H1.64438V81.6167H2.05834C2.25972 82.7131 2.51705 83.541 2.8415 84.078C3.17714 84.6374 3.69179 85.0961 4.37426 85.443C5.05673 85.8122 5.80633 86.0024 6.62306 86.0024C7.55166 86.0024 8.30126 85.7562 8.86066 85.2416C9.39769 84.7493 9.68858 84.1675 9.68858 83.4851C9.68858 83.0935 9.58788 82.7243 9.37531 82.3327C9.17393 81.9635 8.83829 81.5831 8.40195 81.2586C8.11106 81.0349 7.30553 80.5538 5.98534 79.8154C4.66515 79.0882 3.73654 78.5176 3.17714 78.0812C2.61774 77.6449 2.20378 77.1526 1.9129 76.638C1.62201 76.101 1.47656 75.5192 1.47656 74.8815C1.47656 73.785 1.9129 72.8341 2.76319 72.0509C3.5911 71.2454 4.68753 70.8538 5.98534 70.8538C6.79088 70.8538 7.66354 71.0552 8.56977 71.4579C9.00611 71.6481 9.297 71.7488 9.476 71.7488C9.6662 71.7488 9.82283 71.6817 9.95709 71.5586C10.0802 71.4579 10.1809 71.2118 10.2704 70.8538H10.6955V70.809ZM19.5229 85.0066C18.4488 85.8122 17.7887 86.3044 17.5202 86.4387C17.1062 86.6289 16.6699 86.7296 16.2224 86.7296C15.4952 86.7296 14.9246 86.4834 14.4435 85.98C13.9848 85.4877 13.761 84.8388 13.761 84.0333C13.761 83.541 13.8617 83.1047 14.0967 82.7355C14.4099 82.2208 14.9469 81.7397 15.7077 81.2922C16.4685 80.8335 17.7551 80.2741 19.534 79.6364V79.2224C19.534 78.1931 19.3662 77.4883 19.0418 77.1191C18.7061 76.7275 18.2362 76.5373 17.6097 76.5373C17.1286 76.5373 16.7594 76.6604 16.4685 76.9065C16.1776 77.175 16.0546 77.4659 16.0546 77.7903L16.0769 78.4504C16.0769 78.7973 15.9762 79.0658 15.8084 79.256C15.6182 79.4462 15.3945 79.5245 15.1036 79.5245C14.8127 79.5245 14.5889 79.4462 14.4211 79.2336C14.2309 79.0434 14.1526 78.7749 14.1526 78.4281C14.1526 77.7904 14.4882 77.1862 15.1483 76.6492C15.8084 76.0898 16.737 75.8213 17.9342 75.8213C18.8628 75.8213 19.6124 75.9891 20.2053 76.3023C20.6417 76.5261 20.9661 76.8841 21.1787 77.3988C21.3241 77.712 21.3801 78.3721 21.3801 79.3791V82.8697C21.3801 83.8655 21.4024 84.4584 21.4472 84.6934C21.4919 84.9171 21.5479 85.0626 21.6374 85.1521C21.7157 85.2192 21.8276 85.2528 21.9507 85.2528C22.0737 85.2528 22.1744 85.2304 22.2639 85.1744C22.4317 85.0738 22.7226 84.8052 23.1925 84.3465V84.9843C22.3199 86.1254 21.5143 86.6848 20.7535 86.6848C20.3843 86.6848 20.0934 86.5618 19.8697 86.3156C19.6235 86.0359 19.5229 85.6108 19.5229 85.0066ZM19.5229 84.2682V80.3188C18.3705 80.7776 17.6209 81.102 17.2852 81.2922C16.6811 81.6278 16.2671 81.9747 15.9986 82.3215C15.7525 82.6907 15.607 83.0823 15.607 83.4962C15.607 84.0556 15.7749 84.492 16.0993 84.8612C16.435 85.208 16.8042 85.3982 17.2405 85.3982C17.7999 85.3982 18.5719 85.0066 19.5229 84.2682ZM27.5223 70.4062V84.1563C27.5223 84.7941 27.567 85.2304 27.6677 85.443C27.7461 85.6443 27.8915 85.8122 28.1041 85.9129C28.2943 86.0359 28.6635 86.0807 29.1781 86.0807V86.4946H24.1099V86.0807C24.591 86.0807 24.9155 86.0359 25.0833 85.9352C25.2735 85.8569 25.3966 85.6891 25.4973 85.4541C25.598 85.2304 25.6427 84.7941 25.6427 84.1563V74.7472C25.6427 73.5948 25.6203 72.8676 25.5644 72.5991C25.5196 72.353 25.4413 72.1628 25.3183 72.0621C25.1952 71.9838 25.0497 71.9166 24.8595 71.9166C24.6693 71.9166 24.4232 71.9838 24.1323 72.1068L23.9309 71.6929L27.0076 70.4062H27.5223ZM35.4546 75.8324C37.0209 75.8324 38.2852 76.4366 39.2362 77.6337C40.0417 78.6518 40.4557 79.8042 40.4557 81.1244C40.4557 82.053 40.2319 82.9816 39.7732 83.9326C39.3369 84.8836 38.7215 85.6108 37.9495 86.0807C37.1664 86.5618 36.2937 86.8079 35.3204 86.8079C33.7652 86.8079 32.5345 86.1926 31.5947 84.9507C30.834 83.899 30.4424 82.7131 30.4424 81.4153C30.4424 80.4643 30.6661 79.5357 31.1472 78.5847C31.6283 77.6561 32.2436 76.9513 33.0044 76.5149C33.7876 76.0562 34.6155 75.8324 35.4546 75.8324ZM35.1078 76.5709C34.7162 76.5709 34.3246 76.6939 33.9107 76.9177C33.5191 77.1638 33.1834 77.5778 32.9373 78.1596C32.6912 78.7637 32.5681 79.5245 32.5681 80.4531C32.5681 81.9635 32.859 83.2613 33.452 84.3577C34.0561 85.4318 34.8393 85.9912 35.835 85.9912C36.5622 85.9912 37.1552 85.6779 37.6363 85.0849C38.1174 84.4808 38.3635 83.4515 38.3635 81.9859C38.3635 80.151 37.9719 78.6966 37.1664 77.6449C36.6405 76.9401 35.9357 76.5709 35.1078 76.5709ZM38.1621 70.809L34.8281 74.6913H34.4589L35.6336 70.809H38.1621ZM44.9644 78.0029C46.1839 76.5597 47.3251 75.8324 48.4215 75.8324C49.0033 75.8324 49.4732 75.9779 49.8872 76.2688C50.3011 76.5373 50.6144 77.0184 50.8605 77.6561C51.0283 78.1148 51.1067 78.8085 51.1067 79.7483V84.1675C51.1067 84.8276 51.1514 85.264 51.2521 85.5101C51.3304 85.6779 51.4759 85.8457 51.6661 85.9464C51.8563 86.0471 52.1807 86.0919 52.6842 86.0919V86.5058H47.5489V86.0919H47.7726C48.2537 86.0919 48.5782 86.0247 48.7907 85.8905C48.9809 85.745 49.104 85.5213 49.1823 85.2304C49.2047 85.1297 49.2271 84.7717 49.2271 84.1787V79.9161C49.2271 78.9651 49.104 78.2826 48.8579 77.8463C48.6341 77.41 48.2201 77.2086 47.6384 77.2086C46.7545 77.2086 45.8595 77.7008 44.9756 78.6966V84.1787C44.9756 84.8836 45.0204 85.3199 45.0987 85.4765C45.1994 85.6779 45.3448 85.8457 45.535 85.9576C45.7252 86.0695 46.0944 86.1031 46.6762 86.1031V86.517H41.5297V86.1031H41.7535C42.2905 86.1031 42.6373 85.98 42.8275 85.7115C43.0177 85.443 43.096 84.9507 43.096 84.1787V80.33C43.096 79.0882 43.0737 78.3498 43.0177 78.0812C42.9506 77.7904 42.8723 77.6002 42.7716 77.5218C42.6485 77.4211 42.4807 77.3764 42.2905 77.3764C42.0891 77.3764 41.8318 77.4211 41.5409 77.5442L41.3507 77.1303L44.4945 75.8436H44.9756V78.0029H44.9644ZM66.6133 85.3199C66.121 85.8569 65.6175 86.2261 65.1253 86.4611C64.6442 86.6848 64.1295 86.8079 63.5701 86.8079C62.4289 86.8079 61.4668 86.3268 60.6165 85.3758C59.7662 84.4472 59.3522 83.2277 59.3522 81.7397C59.3522 80.2741 59.811 78.9092 60.7396 77.6673C61.6905 76.4478 62.8877 75.8324 64.3533 75.8324C65.2595 75.8324 66.0091 76.1233 66.6021 76.7163V74.792C66.6021 73.6172 66.5797 72.89 66.5238 72.6215C66.4678 72.353 66.3783 72.1628 66.2553 72.0621C66.1322 71.9838 65.9867 71.9166 65.7965 71.9166C65.6063 71.9166 65.3378 71.9838 65.0134 72.1068L64.8679 71.6929L67.967 70.4062H68.4817V82.3774C68.4817 83.5969 68.504 84.3242 68.56 84.5927C68.6271 84.8612 68.7054 85.0514 68.8285 85.1521C68.9516 85.2528 69.097 85.3199 69.2648 85.3199C69.4662 85.3199 69.7347 85.2416 70.0927 85.1185L70.2158 85.5325L67.1279 86.8079H66.6133V85.3199ZM66.6133 84.5144V79.2224C66.5685 78.7078 66.4231 78.2267 66.1993 77.8127C65.9979 77.3764 65.6847 77.0631 65.3155 76.8394C64.9463 76.638 64.5659 76.5261 64.219 76.5261C63.5589 76.5261 62.9548 76.817 62.4401 77.41C61.7577 78.1931 61.4108 79.3343 61.4108 80.8447C61.4108 82.3551 61.7465 83.5298 62.4066 84.3353C63.0667 85.1409 63.8163 85.5548 64.6442 85.5548C65.3155 85.566 65.9756 85.2192 66.6133 84.5144ZM72.6101 80.0503C72.6101 81.5831 72.9793 82.7802 73.7289 83.6529C74.4896 84.5255 75.3847 84.9507 76.3916 84.9507C77.0741 84.9507 77.6559 84.7605 78.1481 84.4137C78.6628 84.0445 79.0767 83.3956 79.4124 82.4893L79.7592 82.7131C79.6138 83.7424 79.1439 84.6934 78.3943 85.5437C77.6335 86.3716 76.6825 86.8079 75.5189 86.8079C74.2771 86.8079 73.2254 86.3268 72.3304 85.3646C71.4465 84.3913 71.0102 83.0935 71.0102 81.46C71.0102 79.7035 71.4689 78.3162 72.3751 77.3205C73.2813 76.3247 74.4225 75.8324 75.7875 75.8324C76.9398 75.8324 77.8908 76.224 78.6404 76.9848C79.39 77.7456 79.7592 78.7637 79.7592 80.0391H72.6101V80.0503ZM72.6101 79.4014H77.4097C77.365 78.7413 77.2867 78.2602 77.186 77.9917C76.9846 77.5778 76.7049 77.231 76.3357 76.996C75.9665 76.7499 75.5749 76.6268 75.1609 76.6268C74.5456 76.6268 73.9862 76.8729 73.4827 77.3764C72.9793 77.8575 72.6884 78.54 72.6101 79.4014ZM91.0703 71.9838V78.0589H94.4379C95.3106 78.0589 95.9035 77.9134 96.1944 77.6673C96.586 77.3205 96.7986 76.6939 96.8545 75.8324H97.2685V81.1915H96.8545C96.7314 80.4419 96.6308 79.9496 96.5189 79.7483C96.3958 79.4797 96.172 79.2672 95.8588 79.1329C95.5455 78.9875 95.0756 78.9092 94.4267 78.9092H91.0703V83.9773C91.0703 84.6598 91.0927 85.0738 91.1486 85.2192C91.2157 85.3646 91.3164 85.4877 91.4619 85.566C91.6073 85.6443 91.8982 85.6891 92.3345 85.6891H94.919C95.7916 85.6891 96.4294 85.622 96.821 85.4989C97.2125 85.3982 97.5817 85.1521 97.9398 84.7941C98.4097 84.3242 98.8907 83.6193 99.383 82.6907H99.8417L98.5215 86.517H86.6846V86.1031H87.2216C87.5908 86.1031 87.9265 86.0247 88.2509 85.8569C88.4971 85.7339 88.6649 85.5437 88.7432 85.2975C88.8215 85.0514 88.8663 84.5703 88.8663 83.8095V73.841C88.8663 72.8676 88.7879 72.2747 88.5754 72.0397C88.3069 71.7264 87.8482 71.581 87.2104 71.581H86.6734V71.1558H98.4992L98.667 74.5234H98.2306C98.0628 73.7179 97.895 73.1585 97.6936 72.8452C97.5034 72.5544 97.2237 72.3082 96.8433 72.1404C96.5524 72.0397 96.0154 71.9726 95.2546 71.9726H91.0703V71.9838ZM100.558 76.1345H105.413V76.5485H105.1C104.809 76.5485 104.585 76.6156 104.418 76.7499C104.272 76.8953 104.194 77.0967 104.194 77.3316C104.194 77.6002 104.272 77.9134 104.44 78.2602L106.857 83.9885L109.273 78.0589C109.441 77.6449 109.519 77.3093 109.519 77.1079C109.519 77.0072 109.497 76.9065 109.441 76.8394C109.363 76.7387 109.251 76.6492 109.128 76.6156C108.982 76.5709 108.736 76.5485 108.345 76.5485V76.1345H111.712V76.5485C111.321 76.5709 111.052 76.6492 110.884 76.7722C110.616 76.996 110.392 77.3876 110.179 77.9246L106.543 86.7967H106.062L102.381 78.0701C102.214 77.6561 102.046 77.3652 101.912 77.1862C101.744 76.996 101.565 76.8506 101.33 76.7275C101.207 76.6604 100.938 76.6044 100.569 76.5373V76.1345H100.558ZM114.386 80.0503C114.386 81.5831 114.755 82.7802 115.505 83.6529C116.266 84.5255 117.161 84.9507 118.168 84.9507C118.85 84.9507 119.432 84.7605 119.924 84.4137C120.439 84.0445 120.853 83.3956 121.188 82.4893L121.535 82.7131C121.39 83.7424 120.92 84.6934 120.17 85.5437C119.41 86.3716 118.459 86.8079 117.295 86.8079C116.053 86.8079 115.002 86.3268 114.106 85.3646C113.223 84.3913 112.786 83.0935 112.786 81.46C112.786 79.7035 113.245 78.3162 114.151 77.3205C115.057 76.3247 116.199 75.8324 117.564 75.8324C118.716 75.8324 119.667 76.224 120.417 76.9848C121.166 77.7456 121.535 78.7637 121.535 80.0391H114.386V80.0503ZM114.386 79.4014H119.186C119.141 78.7413 119.063 78.2602 118.962 77.9917C118.761 77.5778 118.481 77.231 118.112 76.996C117.743 76.7499 117.351 76.6268 116.937 76.6268C116.322 76.6268 115.762 76.8729 115.259 77.3764C114.767 77.8575 114.476 78.54 114.386 79.4014ZM125.966 78.0029C127.185 76.5597 128.326 75.8324 129.423 75.8324C130.005 75.8324 130.475 75.9779 130.889 76.2688C131.302 76.5373 131.616 77.0184 131.862 77.6561C132.03 78.1148 132.108 78.8085 132.108 79.7483V84.1675C132.108 84.8276 132.153 85.264 132.253 85.5101C132.332 85.6779 132.477 85.8457 132.667 85.9464C132.858 86.0471 133.182 86.0919 133.686 86.0919V86.5058H128.55V86.0919H128.774C129.255 86.0919 129.579 86.0247 129.792 85.8905C129.982 85.745 130.105 85.5213 130.184 85.2304C130.206 85.1297 130.228 84.7717 130.228 84.1787V79.9161C130.228 78.9651 130.105 78.2826 129.859 77.8463C129.635 77.41 129.221 77.2086 128.64 77.2086C127.756 77.2086 126.861 77.7008 125.977 78.6966V84.1787C125.977 84.8836 126.022 85.3199 126.1 85.4765C126.201 85.6779 126.346 85.8457 126.536 85.9576C126.727 86.0695 127.096 86.1031 127.678 86.1031V86.517H122.531V86.1031H122.755C123.292 86.1031 123.639 85.98 123.829 85.7115C124.019 85.443 124.097 84.9507 124.097 84.1787V80.33C124.097 79.0882 124.075 78.3498 124.019 78.0812C123.952 77.7904 123.874 77.6002 123.773 77.5218C123.65 77.4211 123.482 77.3764 123.303 77.3764C123.102 77.3764 122.844 77.4211 122.542 77.5442L122.374 77.1303L125.496 75.8436H125.988V78.0029H125.966ZM137.545 72.7222V76.1345H139.962V76.8953L137.545 76.9177V83.6417C137.545 84.3018 137.646 84.7605 137.836 84.9843C138.026 85.2304 138.273 85.3311 138.586 85.3311C138.832 85.3311 139.056 85.264 139.313 85.1073C139.537 84.9619 139.727 84.7157 139.85 84.4248H140.286C140.018 85.1744 139.649 85.7227 139.168 86.1031C138.675 86.4723 138.172 86.6625 137.657 86.6625C137.322 86.6625 136.975 86.5841 136.639 86.3716C136.304 86.1814 136.057 85.8905 135.912 85.5437C135.744 85.1968 135.666 84.6374 135.666 83.8878V76.8953H134.032V76.5261C134.446 76.3583 134.86 76.0898 135.297 75.6982C135.755 75.3066 136.125 74.8255 136.471 74.2885C136.639 73.9976 136.885 73.483 137.199 72.7222H137.545ZM146.048 75.8324C147.615 75.8324 148.879 76.4366 149.83 77.6337C150.635 78.6518 151.049 79.8042 151.049 81.1244C151.049 82.053 150.826 82.9816 150.367 83.9326C149.931 84.8836 149.315 85.6108 148.532 86.0807C147.771 86.5618 146.899 86.8079 145.925 86.8079C144.37 86.8079 143.139 86.1926 142.2 84.9507C141.439 83.899 141.047 82.7131 141.047 81.4153C141.047 80.4643 141.271 79.5357 141.752 78.5847C142.222 77.6561 142.849 76.9513 143.609 76.5149C144.37 76.0562 145.198 75.8324 146.048 75.8324ZM145.69 76.5709C145.299 76.5709 144.907 76.6939 144.493 76.9177C144.102 77.1638 143.766 77.5778 143.52 78.1596C143.274 78.7637 143.151 79.5245 143.151 80.4531C143.151 81.9635 143.441 83.2613 144.034 84.3577C144.639 85.4318 145.422 85.9912 146.417 85.9912C147.145 85.9912 147.738 85.6779 148.219 85.0849C148.7 84.492 148.946 83.4515 148.946 81.9859C148.946 80.151 148.532 78.6966 147.749 77.6449C147.201 76.9401 146.518 76.5709 145.69 76.5709ZM159.217 75.8324V79.3455H158.847C158.557 78.2491 158.187 77.5107 157.751 77.1079C157.292 76.6939 156.733 76.5037 156.039 76.5037C155.525 76.5037 155.088 76.6268 154.775 76.9177C154.439 77.1862 154.283 77.4995 154.283 77.8463C154.283 78.2602 154.406 78.6071 154.652 78.9203C154.876 79.2336 155.357 79.5581 156.062 79.9161L157.717 80.6992C159.25 81.4488 160.011 82.4334 160.011 83.6529C160.011 84.6039 159.664 85.3535 158.937 85.924C158.232 86.5058 157.427 86.7967 156.554 86.7967C155.916 86.7967 155.189 86.696 154.383 86.4611C154.137 86.3828 153.925 86.3604 153.768 86.3604C153.611 86.3604 153.455 86.4387 153.376 86.6289H153.007V82.9257H153.376C153.578 83.9773 153.981 84.7829 154.574 85.3199C155.178 85.8569 155.838 86.1254 156.576 86.1254C157.091 86.1254 157.527 85.9576 157.84 85.6443C158.176 85.3535 158.333 84.9843 158.333 84.5479C158.333 84.0333 158.143 83.5969 157.796 83.2501C157.427 82.9033 156.699 82.4446 155.603 81.9075C154.506 81.3705 153.779 80.8782 153.455 80.4419C153.119 80.0056 152.94 79.4686 152.94 78.8085C152.94 77.9582 153.253 77.2533 153.824 76.6827C154.395 76.1121 155.144 75.8101 156.073 75.8101C156.487 75.8101 156.979 75.8884 157.561 76.0786C157.93 76.2017 158.198 76.2464 158.322 76.2464C158.445 76.2464 158.523 76.224 158.612 76.1793C158.68 76.1121 158.758 75.9891 158.836 75.8101H159.217V75.8324Z" fill="black"/>
<path fill-rule="evenodd" clip-rule="evenodd" d="M0.794521 66.5912C1.14135 67.3855 1.9357 67.5533 2.87549 67.531H156.353C157.27 67.5533 158.065 67.3855 158.411 66.5912C158.736 65.7968 158.311 64.9353 157.528 64.5661C156.744 64.1969 155.894 64.6668 155.581 65.4836C156.565 64.8906 157.337 65.0137 157.584 65.8304C157.707 66.6024 156.89 66.9492 156.342 66.9156H2.85312C2.28253 66.9492 1.48818 66.6024 1.62244 65.8304C1.8462 65.0137 2.61817 64.8906 3.60272 65.4836C3.30064 64.6668 2.43916 64.1969 1.656 64.5661C0.895213 64.9353 0.470068 65.7968 0.794521 66.5912Z" fill="black"/>
<path d="M159.094 68.6609H0V69.3322H159.094V68.6609Z" fill="black"/>
<path d="M159.105 88.6092H0.0107422V89.2805H159.105V88.6092Z" fill="black"/>
</g>
<defs>
<clipPath id="clip0_130_4356">
<rect width="160" height="93.6774" fill="white"/>
</clipPath>
</defs>
</svg>
